<svg xmlns="http://www.w3.org/2000/svg" viewBox="0 0 60 60"><path d="M33.28,40.49a3.28,3.28,0,1,1-6.56,0A3.15,3.15,0,0,1,30,37.21a3.21,3.21,0,0,1,3.28,3.28ZM32.19,32.8a2.5,2.5,0,0,1-.72,1.71,2.79,2.79,0,0,1-2.09.55c-.88-.05-1.45-.28-1.69-.7a4,4,0,0,1-.39-1.83c-.05-1.44-.08-2.71-.1-3.83s0-2.2-.05-3.26,0-2.15,0-3.27,0-2.39,0-3.82a3.35,3.35,0,0,1,.1-.87,1.31,1.31,0,0,1,.41-.67,2.25,2.25,0,0,1,.85-.43,5.62,5.62,0,0,1,1.44-.15,5.33,5.33,0,0,1,1.5.17,2.21,2.21,0,0,1,.84.44,1.28,1.28,0,0,1,.37.67,3.59,3.59,0,0,1,.09.81c0,1.7-.05,3.2-.09,4.49s-.06,2.47-.1,3.57-.08,2.15-.13,3.16S32.25,31.64,32.19,32.8Z" style="fill:#a3a4a6"/><circle cx="30" cy="30" r="28.5" style="fill:none;stroke:#a3a4a6;stroke-miterlimit:10"/></svg>