<svg xmlns="http://www.w3.org/2000/svg" xmlns:xlink="http://www.w3.org/1999/xlink" width="846" height="498" viewBox="0 0 846 498">
  <defs>
    <style>
      .cls-1 {
        fill: #dedede;
      }

      .cls-2 {
        clip-path: url(#clip-loss_flow);
      }

      .cls-3 {
        clip-path: url(#clip-path);
      }

      .cls-4 {
        fill: #a2a2a2;
      }

      .cls-18, .cls-33, .cls-5, .cls-7 {
        fill: #fff;
      }

      .cls-13, .cls-15, .cls-5, .cls-7 {
        font-size: 13px;
      }

      .cls-5, .cls-8 {
        font-family: MalgunGothicBold, Malgun Gothic;
      }

      .cls-18, .cls-6, .cls-7 {
        font-family: SegoeUI-Bold, Segoe UI;
        font-weight: 700;
      }

      .cls-8 {
        font-weight: 400;
      }

      .cls-19, .cls-24, .cls-27, .cls-32, .cls-9 {
        fill: none;
      }

      .cls-9 {
        stroke: #97d1e9;
      }

      .cls-19, .cls-24, .cls-9 {
        stroke-dasharray: 3;
      }

      .cls-10, .cls-17 {
        fill: #97d1e9;
      }

      .cls-11 {
        fill: #f1f7fb;
      }

      .cls-12 {
        fill: #e0e0e0;
      }

      .cls-13, .cls-15 {
        fill: #555;
      }

      .cls-13, .cls-16 {
        font-family: MalgunGothic, Malgun Gothic;
      }

      .cls-14, .cls-15 {
        font-family: SegoeUI, Segoe UI;
      }

      .cls-17, .cls-25, .cls-29 {
        opacity: 0;
      }

      .cls-18 {
        font-size: 12px;
      }

      .cls-19 {
        stroke: #f7d259;
      }

      .cls-20 {
        fill: #f7d259;
      }

      .cls-21 {
        fill: #0068b7;
        stroke: #0063ae;
      }

      .cls-22 {
        font-family: SegoeUI-Semibold, Segoe UI;
        font-weight: 600;
      }

      .cls-23 {
        fill: #54c3f1;
        stroke: #30b4eb;
      }

      .cls-24 {
        stroke: #ccc;
      }

      .cls-25, .cls-26 {
        fill: #ccc;
      }

      .cls-27 {
        stroke: #888;
      }

      .cls-28, .cls-29, .cls-30 {
        fill: #888;
      }

      .cls-30 {
        stroke: #555;
      }

      .cls-31 {
        stroke: none;
      }
    </style>
    <clipPath id="clip-path">
      <rect id="사각형_2" data-name="사각형 2" class="cls-1" width="943" height="498"/>
    </clipPath>
    <clipPath id="clip-loss_flow">
      <rect width="846" height="498"/>
    </clipPath>
  </defs>
  <g id="loss_flow" class="cls-2">
    <rect class="cls-33" width="846" height="498"/>
    <g id="loss_flow_1" class="cls-3">
      <g id="FLOW_-_Start" data-name="FLOW - Start">
        <rect id="사각형_179" data-name="사각형 179" class="cls-4" width="200" height="50" rx="10"/>
        <g id="그룹_1" data-name="그룹 1">
          <text id="손실_사건_발생_또는" data-name="손실 사건 발생 또는" class="cls-5" transform="translate(43 20)"><tspan x="0" y="0">손실</tspan><tspan class="cls-6" y="0"> </tspan><tspan y="0">사건</tspan><tspan class="cls-6" y="0"> </tspan><tspan y="0">발생</tspan><tspan class="cls-6" y="0"> </tspan><tspan y="0">또는</tspan></text>
          <text id="Update_필요_시" data-name="Update 필요 시" class="cls-7" transform="translate(55 39)"><tspan x="0" y="0">Update </tspan><tspan class="cls-8" y="0">필요</tspan><tspan y="0"> </tspan><tspan class="cls-8" y="0">시</tspan></text>
        </g>
      </g>
      <g id="FLOW_-_Line-Y" data-name="FLOW - Line-Y" transform="translate(96 50)">
        <line id="FLOW_-_Line-Y-2" data-name="FLOW - Line-Y" class="cls-9" y2="50" transform="translate(4)"/>
        <path id="FLOW_-_Line-Y_arrow" data-name="FLOW - Line-Y arrow" class="cls-10" d="M4,0,8,6H0Z" transform="translate(8 50) rotate(180)"/>
      </g>
      <g id="FLOW_-_Select" data-name="FLOW - Select" transform="translate(0 70)">
        <g id="다각형_1" data-name="다각형 1">
          <path id="패스_1" data-name="패스 1" class="cls-11" d="M100,69.47,1.514,35,100,.53,198.486,35Z"/>
          <path id="패스_2" data-name="패스 2" class="cls-12" d="M100,1.059,3.027,35,100,68.94,196.973,35,100,1.059M100,0,200,35,100,70,0,35Z"/>
        </g>
        <text id="회계처리여부_" data-name="회계처리여부?" class="cls-13" transform="translate(60.039 41)"><tspan x="0" y="0">회계처리여부</tspan><tspan class="cls-14" y="0">?</tspan></text>
      </g>
      <g id="FLOW_-_Select-2" data-name="FLOW - Select" transform="translate(456 130)">
        <g id="다각형_1-2" data-name="다각형 1">
          <path id="패스_3" data-name="패스 3" class="cls-11" d="M100,69.47,1.514,35,100,.53,198.486,35Z" transform="translate(0.486 0.47)"/>
          <path id="패스_4" data-name="패스 4" class="cls-12" d="M100,1.059,3.027,35,100,68.94,196.973,35,100,1.059M100,0,200,35,100,70,0,35Z"/>
        </g>
        <text id="종결일_존재여부_" data-name="종결일 존재여부?" class="cls-13" transform="translate(100 32)"><tspan x="-19.5" y="0">종결일</tspan><tspan class="cls-14" y="0"></tspan><tspan x="-28.914" y="17">존재여부</tspan><tspan class="cls-14" y="17">?</tspan></text>
      </g>
      <g id="FLOW_-_Select-3" data-name="FLOW - Select" transform="translate(0 190)">
        <g id="다각형_1-3" data-name="다각형 1">
          <path id="패스_5" data-name="패스 5" class="cls-11" d="M100,69.47,1.514,35,100,.53,198.486,35Z"/>
          <path id="패스_6" data-name="패스 6" class="cls-12" d="M100,1.059,3.027,35,100,68.94,196.973,35,100,1.059M100,0,200,35,100,70,0,35Z"/>
        </g>
        <g id="그룹_2" data-name="그룹 2">
          <text id="_7영업일_이내" data-name="7영업일 이내" class="cls-15" transform="translate(64 31)"><tspan x="0" y="0">7</tspan><tspan class="cls-16" y="0">영업일</tspan><tspan y="0"> </tspan><tspan class="cls-16" y="0">이내</tspan></text>
          <text id="잔액_회수여부_" data-name="잔액 회수여부?" class="cls-13" transform="translate(59 50)"><tspan x="0" y="0">잔액</tspan><tspan class="cls-14" y="0"> </tspan><tspan y="0">회수여부</tspan><tspan class="cls-14" y="0">?</tspan></text>
        </g>
      </g>
      <g id="FLOW_-_Select-4" data-name="FLOW - Select" transform="translate(456 250)">
        <g id="다각형_1-4" data-name="다각형 1" transform="translate(0)">
          <path id="패스_7" data-name="패스 7" class="cls-11" d="M100,69.47,1.514,35,100,.53,198.486,35Z"/>
          <path id="패스_8" data-name="패스 8" class="cls-12" d="M100,1.059,3.027,35,100,68.94,196.973,35,100,1.059M100,0,200,35,100,70,0,35Z"/>
        </g>
        <g id="그룹_3" data-name="그룹 3">
          <text id="운영리스크_요소_기인여부_" data-name="운영리스크
요소 기인여부?" class="cls-13" transform="translate(100 32)"><tspan x="-32.5" y="0">운영리스크</tspan><tspan class="cls-14" y="0"></tspan><tspan x="-43.694" y="17">요소</tspan><tspan class="cls-14" y="17"> </tspan><tspan y="17">기인여부</tspan><tspan class="cls-14" y="17">?</tspan></text>
        </g>
      </g>
      <g id="FLOW_-_Line-Y-3" data-name="FLOW - Line-Y" transform="translate(96 140)">
        <line id="FLOW_-_Line-Y-4" data-name="FLOW - Line-Y" class="cls-9" y2="50" transform="translate(4)"/>
        <path id="FLOW_-_Line-Y_arrow-2" data-name="FLOW - Line-Y arrow" class="cls-10" d="M4,0,8,6H0Z" transform="translate(8 50) rotate(180)"/>
      </g>
      <g id="FLOW_-_Line-Y-5" data-name="FLOW - Line-Y" transform="translate(96 257)">
        <line id="FLOW_-_Line-Y-6" data-name="FLOW - Line-Y" class="cls-9" y2="87" transform="translate(4)"/>
        <path id="FLOW_-_Line-Y_arrow-3" data-name="FLOW - Line-Y arrow" class="cls-17" d="M4,0,8,6H0Z" transform="translate(8 87) rotate(180)"/>
      </g>
      <g id="FLOW_-_Line-Y-7" data-name="FLOW - Line-Y" transform="translate(552 317)">
        <line id="FLOW_-_Line-Y-8" data-name="FLOW - Line-Y" class="cls-9" y2="87" transform="translate(4)"/>
        <path id="FLOW_-_Line-Y_arrow-4" data-name="FLOW - Line-Y arrow" class="cls-17" d="M4,0,8,6H0Z" transform="translate(8 87) rotate(180)"/>
      </g>
      <g id="FLOW_-_Line-Y-9" data-name="FLOW - Line-Y" transform="translate(552 200)">
        <line id="FLOW_-_Line-Y-10" data-name="FLOW - Line-Y" class="cls-9" y2="50" transform="translate(4)"/>
        <path id="FLOW_-_Line-Y_arrow-5" data-name="FLOW - Line-Y arrow" class="cls-10" d="M4,0,8,6H0Z" transform="translate(8 50) rotate(180)"/>
      </g>
      <g id="FLOW_-_Line-Y-11" data-name="FLOW - Line-Y" transform="translate(100 350) rotate(-90)">
        <line id="FLOW_-_Line-Y-12" data-name="FLOW - Line-Y" class="cls-9" y2="166.5" transform="translate(3.5)"/>
        <path id="FLOW_-_Line-Y_arrow-6" data-name="FLOW - Line-Y arrow" class="cls-10" d="M3.5,0,7,6H0Z" transform="translate(7 168) rotate(180)"/>
      </g>
      <g id="FLOW_-_Line-Y-13" data-name="FLOW - Line-Y" transform="translate(556 410) rotate(-90)">
        <line id="FLOW_-_Line-Y-14" data-name="FLOW - Line-Y" class="cls-9" y2="165" transform="translate(3.5)"/>
        <path id="FLOW_-_Line-Y_arrow-7" data-name="FLOW - Line-Y arrow" class="cls-10" d="M3.5,0,7,6H0Z" transform="translate(7 165) rotate(180)"/>
      </g>
      <g id="FLOW_-_Yes" data-name="FLOW - Yes" transform="translate(87 150)">
        <circle id="타원_9" data-name="타원 9" class="cls-10" cx="13" cy="13" r="13"/>
        <text id="Y" class="cls-18" transform="translate(9.514 18)"><tspan x="0" y="0">Y</tspan></text>
      </g>
      <g id="FLOW_-_Yes-2" data-name="FLOW - Yes" transform="translate(543 210)">
        <circle id="타원_9-2" data-name="타원 9" class="cls-10" cx="13" cy="13" r="13"/>
        <text id="Y-2" data-name="Y" class="cls-18" transform="translate(9.514 18)"><tspan x="0" y="0">Y</tspan></text>
      </g>
      <g id="FLOW_-_Yes-3" data-name="FLOW - Yes" transform="translate(87 288)">
        <circle id="타원_9-3" data-name="타원 9" class="cls-10" cx="13" cy="13" r="13"/>
        <text id="Y-3" data-name="Y" class="cls-18" transform="translate(9.514 18)"><tspan x="0" y="0">Y</tspan></text>
      </g>
      <g id="FLOW_-_Yes-4" data-name="FLOW - Yes" transform="translate(543 347)">
        <circle id="타원_9-4" data-name="타원 9" class="cls-10" cx="13" cy="13" r="13"/>
        <text id="Y-4" data-name="Y" class="cls-18" transform="translate(9.514 18)"><tspan x="0" y="0">Y</tspan></text>
      </g>
      <g id="FLOW_-_Line-N" data-name="FLOW - Line-N" transform="translate(200 105.5)">
        <line id="FLOW_-_Line-N-2" data-name="FLOW - Line-N" class="cls-19" x2="63"/>
        <path id="FLOW_-_Line-N_arrow" data-name="FLOW - Line-N arrow" class="cls-20" d="M3.5,0,7,6H0Z" transform="translate(68 -3.5) rotate(90)"/>
      </g>
      <g id="FLOW_-_Line-N-3" data-name="FLOW - Line-N" transform="translate(200 225.5)">
        <line id="FLOW_-_Line-N-4" data-name="FLOW - Line-N" class="cls-19" x2="63"/>
        <path id="FLOW_-_Line-N_arrow-2" data-name="FLOW - Line-N arrow" class="cls-20" d="M3.5,0,7,6H0Z" transform="translate(68 -3.5) rotate(90)"/>
      </g>
      <g id="FLOW_-_Line-N-5" data-name="FLOW - Line-N" transform="translate(656 165.5)">
        <line id="FLOW_-_Line-N-6" data-name="FLOW - Line-N" class="cls-19" x2="63"/>
        <path id="FLOW_-_Line-N_arrow-3" data-name="FLOW - Line-N arrow" class="cls-20" d="M3.5,0,7,6H0Z" transform="translate(68 -3.5) rotate(90)"/>
      </g>
      <g id="FLOW_-_Line-N-7" data-name="FLOW - Line-N" transform="translate(656 285.5)">
        <line id="FLOW_-_Line-N-8" data-name="FLOW - Line-N" class="cls-19" x2="63"/>
        <path id="FLOW_-_Line-N_arrow-4" data-name="FLOW - Line-N arrow" class="cls-20" d="M3.5,0,7,6H0Z" transform="translate(68 -3.5) rotate(90)"/>
      </g>
      <g id="FLOW_-_No" data-name="FLOW - No" transform="translate(219 92)">
        <g id="FLOW_-_No-2" data-name="FLOW - No" transform="translate(-219 -113)">
          <rect id="사각형_180" data-name="사각형 180" class="cls-20" width="26" height="26" transform="translate(219 113)"/>
          <text id="N" class="cls-18" transform="translate(227.506 132)"><tspan x="0" y="0">N</tspan></text>
        </g>
      </g>
      <g id="FLOW_-_No-3" data-name="FLOW - No" transform="translate(219 212)">
        <g id="FLOW_-_No-4" data-name="FLOW - No" transform="translate(-219 -113)">
          <rect id="사각형_180-2" data-name="사각형 180" class="cls-20" width="26" height="26" transform="translate(219 113)"/>
          <text id="N-2" data-name="N" class="cls-18" transform="translate(227.506 132)"><tspan x="0" y="0">N</tspan></text>
        </g>
      </g>
      <g id="FLOW_-_No-5" data-name="FLOW - No" transform="translate(675 152)">
        <g id="FLOW_-_No-6" data-name="FLOW - No" transform="translate(-219 -113)">
          <rect id="사각형_180-3" data-name="사각형 180" class="cls-20" width="26" height="26" transform="translate(219 113)"/>
          <text id="N-3" data-name="N" class="cls-18" transform="translate(227.506 132)"><tspan x="0" y="0">N</tspan></text>
        </g>
      </g>
      <g id="FLOW_-_No-7" data-name="FLOW - No" transform="translate(675 272)">
        <g id="FLOW_-_No-8" data-name="FLOW - No" transform="translate(-219 -113)">
          <rect id="사각형_180-4" data-name="사각형 180" class="cls-20" width="26" height="26" transform="translate(219 113)"/>
          <text id="N-4" data-name="N" class="cls-18" transform="translate(227.506 132)"><tspan x="0" y="0">N</tspan></text>
        </g>
      </g>
      <g id="FLOW_-_Item_1" data-name="FLOW - Item_1" transform="translate(258 60)">
        <g id="사각형_181" data-name="사각형 181" class="cls-21" transform="translate(10 10)">
          <rect class="cls-31" width="120" height="70"/>
          <rect class="cls-32" x="0.5" y="0.5" width="119" height="69"/>
        </g>
        <g id="그룹_4" data-name="그룹 4">
          <text id="비재무" class="cls-5" transform="translate(52.06 41)"><tspan x="0" y="0">비재무</tspan></text>
          <text id="손실" class="cls-5" transform="translate(58.04 60)"><tspan x="0" y="0">손실</tspan></text>
        </g>
      </g>
      <g id="FLOW_-_Item_1-2" data-name="FLOW - Item_1" transform="translate(258 180)">
        <g id="사각형_181-2" data-name="사각형 181" class="cls-21" transform="translate(10 10)">
          <rect class="cls-31" width="120" height="70"/>
          <rect class="cls-32" x="0.5" y="0.5" width="119" height="69"/>
        </g>
        <text id="재무_손실" data-name="재무 손실" class="cls-5" transform="translate(58.04 41)"><tspan x="0" y="0">재무</tspan><tspan class="cls-22" y="0"></tspan><tspan x="0" y="19">손실</tspan></text>
      </g>
      <g id="FLOW_-_Item_1-3" data-name="FLOW - Item_1" transform="translate(258 300)">
        <g id="사각형_181-3" data-name="사각형 181" class="cls-21" transform="translate(10 10)">
          <rect class="cls-31" width="120" height="70"/>
          <rect class="cls-32" x="0.5" y="0.5" width="119" height="69"/>
        </g>
        <text id="유사_손실" data-name="유사 손실" class="cls-5" transform="translate(58.04 41)"><tspan x="0" y="0">유사</tspan><tspan class="cls-22" y="0"></tspan><tspan x="0" y="19">손실</tspan></text>
      </g>
      <g id="FLOW_-_Item_2" data-name="FLOW - Item_2" transform="translate(714 120)">
        <g id="사각형_181-4" data-name="사각형 181" class="cls-23" transform="translate(10 10)">
          <rect class="cls-31" width="120" height="70"/>
          <rect class="cls-32" x="0.5" y="0.5" width="119" height="69"/>
        </g>
        <g id="그룹_5" data-name="그룹 5">
          <text id="손실_계류중" data-name="손실
계류중" class="cls-5" transform="translate(70 42)"><tspan x="-13" y="0">손실</tspan><tspan class="cls-22" y="0"></tspan><tspan x="-19.5" y="17">계류중</tspan></text>
        </g>
      </g>
      <g id="FLOW_-_Item_2-2" data-name="FLOW - Item_2" transform="translate(714 240)">
        <g id="사각형_181-5" data-name="사각형 181" class="cls-23" transform="translate(10 10)">
          <rect class="cls-31" width="120" height="70"/>
          <rect class="cls-32" x="0.5" y="0.5" width="119" height="69"/>
        </g>
        <g id="그룹_6" data-name="그룹 6">
          <text id="관리" class="cls-5" transform="translate(58.04 41)"><tspan x="0" y="0">관리</tspan></text>
          <text id="대상외" class="cls-5" transform="translate(52.06 60)"><tspan x="0" y="0">대상외</tspan></text>
        </g>
      </g>
      <g id="FLOW_-_Item_2-3" data-name="FLOW - Item_2" transform="translate(714 360)">
        <g id="사각형_181-6" data-name="사각형 181" class="cls-23" transform="translate(10 10)">
          <rect class="cls-31" width="120" height="70"/>
          <rect class="cls-32" x="0.5" y="0.5" width="119" height="69"/>
        </g>
        <text id="손실_확정" data-name="손실 확정" class="cls-5" transform="translate(58.04 41)"><tspan x="0" y="0">손실</tspan><tspan class="cls-22" y="0"></tspan><tspan x="0" y="19">확정</tspan></text>
      </g>
      <g id="FLOW_-_Line" data-name="FLOW - Line" transform="translate(388 102)">
        <line id="FLOW_-_Line-2" data-name="FLOW - Line" class="cls-24" x2="29" transform="translate(0 3.5)"/>
        <path id="FLOW_-_Line_arrow" data-name="FLOW - Line arrow" class="cls-25" d="M3.5,0,7,6H0Z" transform="translate(34) rotate(90)"/>
      </g>
      <g id="FLOW_-_Line-3" data-name="FLOW - Line" transform="translate(419.5 105.5) rotate(90)">
        <line id="FLOW_-_Line-4" data-name="FLOW - Line" class="cls-24" x2="125.5" transform="translate(0 3.5)"/>
        <path id="FLOW_-_Line_arrow-2" data-name="FLOW - Line arrow" class="cls-25" d="M3.5,0,7,6H0Z" transform="translate(130.5) rotate(90)"/>
      </g>
      <g id="FLOW_-_Line-5" data-name="FLOW - Line" transform="translate(416.5 162)">
        <line id="FLOW_-_Line-6" data-name="FLOW - Line" class="cls-24" x2="34.5" transform="translate(0 3.5)"/>
        <path id="FLOW_-_Line_arrow-3" data-name="FLOW - Line arrow" class="cls-26" d="M3.5,0,7,6H0Z" transform="translate(39.5) rotate(90)"/>
      </g>
      <g id="FLOW_-_Line-7" data-name="FLOW - Line" transform="translate(388 225)">
        <line id="FLOW_-_Line-8" data-name="FLOW - Line" class="cls-24" x2="29" transform="translate(0 3.5)"/>
        <path id="FLOW_-_Line_arrow-4" data-name="FLOW - Line arrow" class="cls-25" d="M3.5,0,7,6H0Z" transform="translate(34) rotate(90)"/>
      </g>
      <g id="FLOW_-_Line_last" data-name="FLOW - Line_last" transform="translate(380.5 3561) rotate(180)">
        <line id="FLOW_-_Line-9" data-name="FLOW - Line" class="cls-27" x2="389.5" transform="translate(-402 3097.5)"/>
        <path id="FLOW_-_Line_arrow-5" data-name="FLOW - Line arrow" class="cls-28" d="M3.5,0,7,6H0Z" transform="translate(-7.5 3094) rotate(90)"/>
      </g>
      <g id="FLOW_-_Line_last-2" data-name="FLOW - Line_last" transform="translate(3880 842) rotate(90)">
        <line id="FLOW_-_Line-10" data-name="FLOW - Line" class="cls-27" x2="23.5" transform="translate(-402 3097.5)"/>
        <path id="FLOW_-_Line_arrow-6" data-name="FLOW - Line arrow" class="cls-29" d="M3.5,0,7,6H0Z" transform="translate(-374 3094) rotate(90)"/>
      </g>
      <g id="FLOW_-_Line_last-3" data-name="FLOW - Line_last" transform="translate(3426 780) rotate(90)">
        <line id="FLOW_-_Line-11" data-name="FLOW - Line" class="cls-27" x2="45" transform="translate(-402 3097.5)"/>
        <path id="FLOW_-_Line_arrow-7" data-name="FLOW - Line arrow" class="cls-28" d="M3.5,0,7,6H0Z" transform="translate(-352 3094) rotate(90)"/>
      </g>
      <g id="FLOW_-_Last" data-name="FLOW - Last" transform="translate(268 428)">
        <g id="사각형_187" data-name="사각형 187" class="cls-30">
          <rect class="cls-31" width="120" height="70"/>
          <rect class="cls-32" x="0.5" y="0.5" width="119" height="69"/>
        </g>
        <text id="종결" class="cls-5" transform="translate(48.04 41)"><tspan x="0" y="0">종결</tspan></text>
      </g>
    </g>
  </g>
</svg>
