<svg xmlns="http://www.w3.org/2000/svg" viewBox="0 0 50 50"><path d="M34,29.51V27.17a2.61,2.61,0,0,0-2.57-2.66H26V22.37a4,4,0,1,0-2,0v2.14H18.56A2.61,2.61,0,0,0,16,27.17v2.34a2,2,0,0,0-2,2v2a2,2,0,0,0,2,2h2a2,2,0,0,0,2-2v-2a2,2,0,0,0-2-2V27.17a.62.62,0,0,1,.56-.66H24v3a2,2,0,0,0-2,2v2a2,2,0,0,0,2,2h2a2,2,0,0,0,2-2v-2a2,2,0,0,0-2-2v-3h5.43a.62.62,0,0,1,.57.66v2.34a2,2,0,0,0-2,2v2a2,2,0,0,0,2,2h2a2,2,0,0,0,2-2v-2A2,2,0,0,0,34,29.51Zm-11-11a2,2,0,1,1,2,2A2,2,0,0,1,23,18.51Z" style="fill:#a3a4a6"/></svg>