<svg xmlns="http://www.w3.org/2000/svg" viewBox="0 0 50 50"><path d="M25,15A10,10,0,1,0,35,25,10,10,0,0,0,25,15Zm.8,15.26a1.38,1.38,0,1,1,.39-1A1.28,1.28,0,0,1,25.8,30.26Zm2.5-7.14a4.35,4.35,0,0,1-.48.8,5.55,5.55,0,0,1-.66.71l-.71.66a2.15,2.15,0,0,0-.48.64,1.35,1.35,0,0,0-.15.62,1.35,1.35,0,0,1,0,.29.43.43,0,0,1-.14.23.87.87,0,0,1-.3.16,2.36,2.36,0,0,1-1.1,0,.85.85,0,0,1-.3-.19.5.5,0,0,1-.11-.26c0-.1,0-.2,0-.3a2.64,2.64,0,0,1,.1-.79,2.13,2.13,0,0,1,.41-.79,5.68,5.68,0,0,1,.62-.68l.92-.93a1.65,1.65,0,0,0,.38-.6,1.35,1.35,0,0,0,.07-.66.87.87,0,0,0-.45-.67,1.56,1.56,0,0,0-1.72.27,1.28,1.28,0,0,0-.31.79,1,1,0,0,1-1,1.07h-.12a1.05,1.05,0,0,1-.9-.26,1.34,1.34,0,0,1-.29-.82,2.39,2.39,0,0,1,.13-1.09,2.47,2.47,0,0,1,.61-.92,3.28,3.28,0,0,1,1.06-.67,4.87,4.87,0,0,1,1.51-.34,4.27,4.27,0,0,1,1.47.11,3.37,3.37,0,0,1,1.16.56,2.71,2.71,0,0,1,.75.93,2.6,2.6,0,0,1,.26,1.2A2.23,2.23,0,0,1,28.3,23.12Z" style="fill:#a3a4a6"/></svg>